<?xml version="1.0" encoding="UTF-8" standalone="no"?>
<!DOCTYPE svg PUBLIC "-//W3C//DTD SVG 1.1//EN" "http://www.w3.org/Graphics/SVG/1.1/DTD/svg11.dtd">
<!-- Created with Vectornator (http://vectornator.io/) -->
<svg height="384.0pt" stroke-miterlimit="10" style="fill-rule:nonzero;clip-rule:evenodd;stroke-linecap:round;stroke-linejoin:round;" version="1.1" viewBox="0 0 384 384" width="384.0pt" xml:space="preserve" xmlns="http://www.w3.org/2000/svg" xmlns:xlink="http://www.w3.org/1999/xlink">
<defs/>
<g id="surface3770">
<path d="M206.77 188.139C187.789 155.494 178.414 139.172 162.461 139.172C146.512 139.172 137.133 155.494 118.152 188.139L206.77 188.139Z" fill="#171718" fill-rule="nonzero" opacity="1" stroke="none"/>
<path d="M354.062 204.461C341.215 231.325 300.523 239.16 283.125 239.16C240.621 239.16 225.719 204.526 208.602 204.526L120.281 204.526C105.777 208.804 88.6172 220.783 88.6172 220.783C78.5 220.783 46.1094 204.884 21.8867 190.164C17.293 187.388 11.7578 187.452 7.25 190.405C2.76172 193.344 0 198.681 0 204.461C0 292.024 71.3359 320.378 102.012 328.472C102.66 328.653 106.16 329.568 109.32 330.35C124.137 343.491 142.492 351.356 162.461 351.356C234.551 351.356 224.609 306.404 310.168 271.493C376.348 244.465 384 204.461 384 204.461L354.062 204.461ZM33.7188 233.479C46.4492 240.157 61.4414 247.159 74.0234 250.815C74.4062 263.136 76.5625 274.921 80.2695 285.773C61.1445 275.949 41.9609 259.92 33.7188 233.479Z" fill="#171718" fill-rule="nonzero" opacity="1" stroke="none"/>
<path d="M221.539 384L103.383 384C103.383 362.96 129.82 336.829 162.461 336.829C195.102 336.829 221.539 362.96 221.539 384Z" fill="#171718" fill-rule="nonzero" opacity="1" stroke="none"/>
<path d="M369.23 193.819C357.461 115.617 214.388 165.239 214.388 68.7286C214.388 38.9763 237.615 15.2549 272.451 15.2549C286.872 15.2549 330.19 24.2785 330.19 68.7286C330.19 105.773 284.026 103.719 274.197 82.5439C269.067 123.894 369.635 106.31 369.23 193.819Z" fill="#8c1ac4" fill-rule="nonzero" opacity="1" stroke="none"/>
</g>
</svg>
